<?xml version="1.0" standalone="no"?>
<!DOCTYPE svg PUBLIC "-//W3C//DTD SVG 20010904//EN"
 "http://www.w3.org/TR/2001/REC-SVG-20010904/DTD/svg10.dtd">
<svg version="1.0" xmlns="http://www.w3.org/2000/svg"
 width="512.000000pt" height="512.000000pt" viewBox="0 0 512.000000 512.000000"
 preserveAspectRatio="xMidYMid meet">
<metadata>
Created by potrace 1.14, written by Peter Selinger 2001-2017
</metadata>
<g transform="translate(0.000000,512.000000) scale(0.100000,-0.100000)"
fill="#000000" stroke="none">
<path d="M2379 5116 c-2 -2 -40 -6 -83 -10 -44 -4 -82 -8 -85 -10 -3 -2 -31
-7 -61 -11 -30 -3 -75 -11 -100 -17 -25 -5 -56 -12 -70 -14 -48 -10 -197 -54
-286 -85 -398 -140 -788 -408 -1064 -729 -64 -74 -76 -89 -143 -180 -208 -280
-367 -643 -436 -995 -40 -200 -46 -267 -45 -515 0 -184 3 -241 19 -345 3 -16
7 -43 9 -60 37 -265 165 -623 307 -860 10 -16 27 -46 38 -65 19 -36 131 -195
166 -239 246 -301 506 -518 820 -685 228 -122 538 -225 781 -261 22 -4 50 -8
64 -11 144 -26 531 -26 708 1 75 12 90 14 142 25 30 6 66 13 80 16 111 21 368
110 505 175 657 311 1148 878 1364 1576 18 56 34 113 37 128 3 15 11 55 19 89
36 154 49 296 50 521 0 217 -11 339 -44 500 -6 28 -13 61 -15 75 -55 276 -217
639 -401 900 -414 583 -1032 963 -1735 1065 -19 3 -53 7 -75 11 -44 6 -460 15
-466 10z m-407 -1380 c86 -20 180 -63 271 -123 73 -49 253 -219 322 -305 20
-27 41 -48 45 -48 4 0 27 26 51 58 166 220 375 384 534 418 185 41 345 13 519
-90 78 -46 241 -199 304 -287 154 -213 282 -543 317 -814 3 -27 10 -77 14
-110 9 -66 7 -413 -3 -460 -15 -67 -49 -200 -55 -214 -71 -153 -115 -214 -198
-281 -94 -74 -202 -111 -333 -114 -257 -7 -431 94 -641 369 -77 100 -176 255
-368 578 -101 169 -186 307 -190 307 -3 0 -19 -24 -35 -53 -215 -387 -454
-783 -507 -837 -8 -8 -27 -33 -44 -55 -40 -54 -158 -169 -212 -206 -106 -73
-226 -107 -368 -104 -313 8 -541 217 -610 560 -27 135 -27 426 -1 585 3 14 7
41 10 60 21 131 75 315 135 458 125 299 331 541 556 654 52 26 177 65 230 70
65 7 194 -1 257 -16z"/>
<path d="M3202 3425 c-70 -25 -144 -78 -216 -153 -53 -55 -155 -189 -182 -237
l-16 -31 74 -114 c41 -63 131 -210 201 -327 246 -411 398 -637 486 -722 85
-82 188 -107 288 -69 91 34 154 133 170 267 13 104 6 359 -12 456 -3 17 -10
55 -15 85 -16 91 -18 99 -45 192 -94 328 -273 573 -474 649 -81 31 -181 32
-259 4z"/>
<path d="M1712 3354 c-249 -64 -472 -439 -546 -919 -15 -95 -16 -350 -2 -415
39 -177 126 -263 266 -264 146 -1 252 92 457 399 156 234 483 746 483 757 0
19 -140 197 -213 270 -149 151 -300 209 -445 172z"/>
</g>
</svg>
